<?xml version="1.0" encoding="utf-8"?>
<svg version="1.1" xmlns:xlink="http://www.w3.org/1999/xlink" width="46px" height="50px" xmlns="http://www.w3.org/2000/svg">
  <g transform="matrix(1 0 0 1 -66 -661 )">
    <path d="M 16.4332386363636 41.3736979166667  C 16.6292613636364 41.1783854166667  16.7272727272727 40.9288194444444  17 40.625  L 17 17.7083333333333  C 16.7272727272727 17.4045138888889  16.6292613636364 17.1549479166667  16.4332386363636 16.9596354166667  C 16.2372159090909 16.7643229166667  15.9867424242424 16.6666666666667  15.6818181818182 16.6666666666667  L 13.5909090909091 16.6666666666667  C 13.2859848484849 16.6666666666667  13.0355113636364 16.7643229166667  12.8394886363636 16.9596354166667  C 12.6434659090909 17.1549479166667  12.5454545454545 17.4045138888889  13 17.7083333333333  L 13 40.625  C 12.5454545454545 40.9288194444444  12.6434659090909 41.1783854166667  12.8394886363636 41.3736979166667  C 13.0355113636364 41.5690104166667  13.2859848484849 41.6666666666667  13.5909090909091 41.6666666666667  L 15.6818181818182 41.6666666666667  C 15.9867424242424 41.6666666666667  16.2372159090909 41.5690104166667  16.4332386363636 41.3736979166667  Z M 24.796875 41.3736979166667  C 24.9928977272727 41.1783854166667  25.0909090909091 40.9288194444444  25 40.625  L 25 17.7083333333333  C 25.0909090909091 17.4045138888889  24.9928977272727 17.1549479166667  24.796875 16.9596354166667  C 24.6008522727273 16.7643229166667  24.3503787878788 16.6666666666667  24.0454545454545 16.6666666666667  L 21.9545454545455 16.6666666666667  C 21.6496212121212 16.6666666666667  21.3991477272727 16.7643229166667  21.203125 16.9596354166667  C 21.0071022727273 17.1549479166667  20.9090909090909 17.4045138888889  21 17.7083333333333  L 21 40.625  C 20.9090909090909 40.9288194444444  21.0071022727273 41.1783854166667  21.203125 41.3736979166667  C 21.3991477272727 41.5690104166667  21.6496212121212 41.6666666666667  21.9545454545455 41.6666666666667  L 24.0454545454545 41.6666666666667  C 24.3503787878788 41.6666666666667  24.6008522727273 41.5690104166667  24.796875 41.3736979166667  Z M 33.1605113636364 41.3736979166667  C 33.3565340909091 41.1783854166667  33.4545454545455 40.9288194444444  33 40.625  L 33 17.7083333333333  C 33.4545454545455 17.4045138888889  33.3565340909091 17.1549479166667  33.1605113636364 16.9596354166667  C 32.9644886363636 16.7643229166667  32.7140151515151 16.6666666666667  32.4090909090909 16.6666666666667  L 30.3181818181818 16.6666666666667  C 30.0132575757576 16.6666666666667  29.7627840909091 16.7643229166667  29.5667613636364 16.9596354166667  C 29.3707386363636 17.1549479166667  29.2727272727273 17.4045138888889  29 17.7083333333333  L 29 40.625  C 29.2727272727273 40.9288194444444  29.3707386363636 41.1783854166667  29.5667613636364 41.3736979166667  C 29.7627840909091 41.5690104166667  30.0132575757576 41.6666666666667  30.3181818181818 41.6666666666667  L 32.4090909090909 41.6666666666667  C 32.7140151515151 41.6666666666667  32.9644886363636 41.5690104166667  33.1605113636364 41.3736979166667  Z M 17.2826704545455 4.52473958333333  L 15.6818181818182 9  L 30.3181818181818 9  L 28.75 4.52473958333333  C 28.5975378787879 4.32942708333333  28.4124053030303 4.21006944444444  28.1946022727273 5  L 17.8380681818182 5  C 17.6202651515152 4.21006944444444  17.4351325757576 4.32942708333333  17.2826704545455 4.52473958333333  Z M 45.7059659090909 8.62630208333333  C 45.9019886363636 8.82161458333333  46 9.07118055555555  46 9.375  L 46 11.4583333333333  C 46 11.7621527777778  45.9019886363636 12.01171875  45.7059659090909 12.20703125  C 45.5099431818182 12.40234375  45.2594696969697 12.5  44.9545454545455 12.5  L 41 12.5  L 41 43.359375  C 41.8181818181818 45.1605902777778  41.3063446969697 46.7176649305556  40.2826704545455 48.0305989583333  C 39.2589962121212 49.3435329861111  38.0284090909091 50  36.5909090909091 50  L 9.40909090909091 50  C 7.97159090909091 50  6.74100378787879 49.365234375  5.71732954545454 48.095703125  C 4.6936553030303 46.826171875  4.18181818181818 45.2907986111111  5 43.4895833333333  L 5 12.5  L 1.04545454545455 12.5  C 0.740530303030303 12.5  0.490056818181818 12.40234375  0.294034090909091 12.20703125  C 0.0980113636363636 12.01171875  0 11.7621527777778  0 11.4583333333333  L 0 9.375  C 0 9.07118055555555  0.0980113636363636 8.82161458333333  0.294034090909091 8.62630208333333  C 0.490056818181818 8.43098958333333  0.740530303030303 8.33333333333333  1.04545454545455 9  L 11.140625 9  L 13.4275568181818 2.89713541666667  C 13.7542613636364 2.09418402777777  14.3423295454545 1.41059027777777  15.1917613636364 0.846354166666669  C 16.0411931818182 0.282118055555552  16.9015151515152 0  17.7727272727273 0  L 28.2272727272727 0  C 29.0984848484849 0  29.9588068181818 0.282118055555552  30.8082386363636 0.846354166666669  C 31.6576704545455 1.41059027777777  32.2457386363636 2.09418402777777  32.5724431818182 2.89713541666667  L 34.859375 9  L 44.9545454545455 9  C 45.2594696969697 8.33333333333333  45.5099431818182 8.43098958333333  45.7059659090909 8.62630208333333  Z " fill-rule="nonzero" fill="#555555" stroke="none" transform="matrix(1 0 0 1 66 661 )" />
  </g>
</svg>