<?xml version="1.0" encoding="utf-8"?>
<svg version="1.1" xmlns:xlink="http://www.w3.org/1999/xlink" width="50px" height="46px" xmlns="http://www.w3.org/2000/svg">
  <g transform="matrix(1 0 0 1 -279 -663 )">
    <path d="M 37.890625 41.59765625  C 38.271233974359 41.2183159722222  38.4615384615385 40.7690972222222  38.4615384615385 40.25  C 38.4615384615385 39.7309027777778  38.271233974359 39.2816840277778  37.890625 38.90234375  C 37.510016025641 38.5230034722222  37.0592948717949 38.3333333333333  36.5384615384615 38.3333333333333  C 36.0176282051282 38.3333333333333  35.5669070512821 38.5230034722222  35.1862980769231 38.90234375  C 34.8056891025641 39.2816840277778  34.6153846153846 39.7309027777778  34.6153846153846 40.25  C 34.6153846153846 40.7690972222222  34.8056891025641 41.2183159722222  35.1862980769231 41.59765625  C 35.5669070512821 41.9769965277778  36.0176282051282 42.1666666666667  36.5384615384615 42.1666666666667  C 37.0592948717949 42.1666666666667  37.510016025641 41.9769965277778  37.890625 41.59765625  Z M 45.5829326923077 41.59765625  C 45.9635416666667 41.2183159722222  46.1538461538462 40.7690972222222  46.1538461538462 40.25  C 46.1538461538462 39.7309027777778  45.9635416666667 39.2816840277778  45.5829326923077 38.90234375  C 45.2023237179487 38.5230034722222  44.7516025641026 38.3333333333333  44.2307692307692 38.3333333333333  C 43.7099358974359 38.3333333333333  43.2592147435897 38.5230034722222  42.8786057692308 38.90234375  C 42.4979967948718 39.2816840277778  42.3076923076923 39.7309027777778  42.3076923076923 40.25  C 42.3076923076923 40.7690972222222  42.4979967948718 41.2183159722222  42.8786057692308 41.59765625  C 43.2592147435897 41.9769965277778  43.7099358974359 42.1666666666667  44.2307692307692 42.1666666666667  C 44.7516025641026 42.1666666666667  45.2023237179487 41.9769965277778  45.5829326923077 41.59765625  Z M 49.1586538461538 31.5052083333333  C 49.7195512820513 32.0642361111111  50 32.7430555555556  50 33.5416666666667  L 50 43.125  C 50 43.9236111111111  49.7195512820513 44.6024305555556  49.1586538461538 45.1614583333333  C 48.5977564102564 45.7204861111111  47.9166666666667 46  47.1153846153846 46  L 2.88461538461538 46  C 2.08333333333333 46  1.40224358974359 45.7204861111111  0.841346153846154 45.1614583333333  C 0.280448717948718 44.6024305555556  0 43.9236111111111  0 43.125  L 0 33.5416666666667  C 0 32.7430555555556  0.280448717948718 32.0642361111111  0.841346153846154 31.5052083333333  C 1.40224358974359 30.9461805555556  2.08333333333333 30.6666666666667  2.88461538461538 30  L 16.8569711538462 30  L 20.9134615384615 34.7395833333333  C 22.0753205128205 35.8576388888889  23.4375 36.4166666666667  25 36.4166666666667  C 26.5625 36.4166666666667  27.9246794871795 35.8576388888889  29.0865384615385 34.7395833333333  L 33.1730769230769 30  L 47.1153846153846 30  C 47.9166666666667 30.6666666666667  48.5977564102564 30.9461805555556  49.1586538461538 31.5052083333333  Z M 38.4615384615385 15.3333333333333  C 39.3028846153846 15.3333333333333  39.8938301282051 15.72265625  40.234375 16.5013020833333  C 40.5749198717949 17.3198784722222  40.4346955128205 18.0186631944444  39.8137019230769 18.59765625  L 26.3521634615385 32.0143229166667  C 25.9915865384615 32.3936631944444  25.5408653846154 32.5833333333333  25 32.5833333333333  C 24.4591346153846 32.5833333333333  24.0084134615385 32.3936631944444  23.6478365384615 32.0143229166667  L 10.1862980769231 18.59765625  C 9.56530448717949 18.0186631944444  9.42508012820513 17.3198784722222  9.765625 16.5013020833333  C 10.1061698717949 15.72265625  10.6971153846154 15.3333333333333  11.5384615384615 15.3333333333333  L 20 15.3333333333333  L 20 1.91666666666666  C 19.2307692307692 1.39756944444444  19.4210737179487 0.948350694444438  19.8016826923077 0.569010416666665  C 20.1822916666667 0.189670138888892  20.6330128205128 0  21.1538461538462 0  L 28.8461538461538 0  C 29.3669871794872 0  29.8177083333333 0.189670138888892  30.1983173076923 0.569010416666665  C 30.5789262820513 0.948350694444438  30.7692307692308 1.39756944444444  30 1.91666666666666  L 30 15.3333333333333  L 38.4615384615385 15.3333333333333  Z " fill-rule="nonzero" fill="#555555" stroke="none" transform="matrix(1 0 0 1 279 663 )" />
  </g>
</svg>