<?xml version="1.0" encoding="utf-8"?>
<svg version="1.1" xmlns:xlink="http://www.w3.org/1999/xlink" width="32px" height="45px" xmlns="http://www.w3.org/2000/svg">
  <g transform="matrix(1 0 0 1 -179 -554 )">
    <path d="M 31.4722222222222 17.8215144230769  C 31.8240740740741 18.1640625  32 18.5697115384615  32 19.0384615384615  L 32 22.5  C 32 26.484375  30.6342592592593 29.9504206730769  27.9027777777778 32.8981370192308  C 25.1712962962963 35.8458533653846  21.7962962962963 37.5360576923077  17.7777777777778 37.96875  L 17.7777777777778 41.5384615384615  L 24.8888888888889 41.5384615384615  C 25.3703703703704 41.5384615384615  25.787037037037 41.7097355769231  26.1388888888889 42.0522836538462  C 26.4907407407407 42.3948317307692  26.6666666666667 42.8004807692308  26.6666666666667 43.2692307692308  C 26.6666666666667 43.7379807692308  26.4907407407407 44.1436298076923  26.1388888888889 44.4861778846154  C 25.787037037037 44.8287259615385  25.3703703703704 45  24.8888888888889 45  L 7.11111111111111 45  C 6.62962962962963 45  6.21296296296296 44.8287259615385  5.86111111111111 44.4861778846154  C 5.50925925925926 44.1436298076923  5.33333333333333 43.7379807692308  5.33333333333333 43.2692307692308  C 5.33333333333333 42.8004807692308  5.50925925925926 42.3948317307692  5.86111111111111 42.0522836538462  C 6.21296296296296 41.7097355769231  6.62962962962963 41.5384615384615  7.11111111111111 41.5384615384615  L 14.2222222222222 41.5384615384615  L 14.2222222222222 37.96875  C 10.2037037037037 37.5360576923077  6.8287037037037 35.8458533653846  4.09722222222222 32.8981370192308  C 1.36574074074074 29.9504206730769  0 26.484375  0 22.5  L 0 19.0384615384615  C 0 18.5697115384615  0.175925925925926 18.1640625  0.527777777777778 17.8215144230769  C 0.87962962962963 17.4789663461538  1.2962962962963 17.3076923076923  1.77777777777778 17.3076923076923  C 2.25925925925926 17.3076923076923  2.67592592592593 17.4789663461538  3.02777777777778 17.8215144230769  C 3.37962962962963 18.1640625  3.55555555555556 18.5697115384615  3.55555555555556 19.0384615384615  L 3.55555555555556 22.5  C 3.55555555555556 25.8353365384615  4.77314814814815 28.6884014423077  7.20833333333333 31.0591947115385  C 9.64351851851852 33.4299879807692  12.5740740740741 34.6153846153846  16 34.6153846153846  C 19.4259259259259 34.6153846153846  22.3564814814815 33.4299879807692  24.7916666666667 31.0591947115385  C 27.2268518518519 28.6884014423077  28.4444444444444 25.8353365384615  28.4444444444444 22.5  L 28.4444444444444 19.0384615384615  C 28.4444444444444 18.5697115384615  28.6203703703704 18.1640625  28.9722222222222 17.8215144230769  C 29.3240740740741 17.4789663461538  29.7407407407407 17.3076923076923  30.2222222222222 17.3076923076923  C 30.7037037037037 17.3076923076923  31.1203703703704 17.4789663461538  31.4722222222222 17.8215144230769  Z M 22.2777777777778 2.54206730769231  C 24.0185185185185 4.23677884615384  24.8888888888889 6.27403846153846  24.8888888888889 8.65384615384615  L 24.8888888888889 22.5  C 24.8888888888889 24.8798076923077  24.0185185185185 26.9170673076923  22.2777777777778 28.6117788461538  C 20.537037037037 30.3064903846154  18.4444444444444 31.1538461538462  16 31.1538461538462  C 13.5555555555556 31.1538461538462  11.462962962963 30.3064903846154  9.72222222222222 28.6117788461538  C 7.98148148148148 26.9170673076923  7.11111111111111 24.8798076923077  7.11111111111111 22.5  L 7.11111111111111 8.65384615384615  C 7.11111111111111 6.27403846153846  7.98148148148148 4.23677884615384  9.72222222222222 2.54206730769231  C 11.462962962963 0.847355769230774  13.5555555555556 0  16 0  C 18.4444444444444 0  20.537037037037 0.847355769230774  22.2777777777778 2.54206730769231  Z " fill-rule="nonzero" fill="#ffffff" stroke="none" transform="matrix(1 0 0 1 179 554 )" />
  </g>
</svg>